<svg xmlns="http://www.w3.org/2000/svg" width="1200" height="675" viewBox="0 0 1200 675" fill="none">
  <rect width="1200" height="675" fill="#050505"/>
  <path stroke="rgba(126,179,200,0.15)" stroke-width="1" d="M0 24h1200M0 48h1200M0 72h1200M0 96h1200M0 120h1200M0 144h1200M0 168h1200M0 192h1200M0 216h1200M0 240h1200M0 264h1200M0 288h1200M0 312h1200M0 336h1200M0 360h1200M0 384h1200M0 408h1200M0 432h1200M0 456h1200M0 480h1200M0 504h1200M0 528h1200M0 552h1200M0 576h1200M0 600h1200M0 624h1200M0 648h1200"/>
  <path stroke="rgba(126,179,200,0.12)" stroke-width="1" d="M24 0v675M48 0v675M72 0v675M96 0v675M120 0v675M144 0v675M168 0v675M192 0v675M216 0v675M240 0v675M264 0v675M288 0v675M312 0v675M336 0v675M360 0v675M384 0v675M408 0v675M432 0v675M456 0v675M480 0v675M504 0v675M528 0v675M552 0v675M576 0v675M600 0v675M624 0v675M648 0v675M672 0v675M696 0v675M720 0v675M744 0v675M768 0v675M792 0v675M816 0v675M840 0v675M864 0v675M888 0v675M912 0v675M936 0v675M960 0v675M984 0v675M1008 0v675M1032 0v675M1056 0v675M1080 0v675M1104 0v675M1128 0v675M1152 0v675M1176 0v675"/>
  <rect x="64" y="64" width="1072" height="547" stroke="rgba(255,255,255,0.12)" stroke-width="1"/>
  <path stroke="#7eb3c8" stroke-width="1.5" d="M64 64h32v32H64z"/>
  <path stroke="#7eb3c8" stroke-width="1.5" d="M1104 64h32v32h-32z"/>
  <text x="104" y="92" fill="#a1a1aa" font-family="ui-monospace, monospace" font-size="14" letter-spacing="0.14em">AEGISDOCK · CONSOLE</text>
  <text x="104" y="120" fill="#ffffff" font-family="ui-sans-serif, system-ui" font-size="22" font-weight="600">Synthetic docking · live</text>
  <rect x="104" y="160" width="420" height="240" stroke="rgba(255,255,255,0.1)" stroke-width="1"/>
  <rect x="104" y="420" width="992" height="160" stroke="rgba(255,255,255,0.08)" stroke-width="1"/>
  <text x="124" y="200" fill="#7eb3c8" font-family="ui-monospace, monospace" font-size="11" letter-spacing="0.12em">RANGE · M</text>
  <text x="124" y="230" fill="#e8eef5" font-family="ui-monospace, monospace" font-size="28">12.4</text>
  <text x="124" y="280" fill="#7eb3c8" font-family="ui-monospace, monospace" font-size="11" letter-spacing="0.12em">CONTACT · STATE</text>
  <text x="124" y="310" fill="#6fa68c" font-family="ui-monospace, monospace" font-size="20">STAGED</text>
  <line x1="560" y1="180" x2="980" y2="320" stroke="rgba(126,179,200,0.35)" stroke-width="1"/>
  <circle cx="980" cy="320" r="6" stroke="#7eb3c8" stroke-width="1.5" fill="none"/>
</svg>
